<svg height="512pt" viewBox="0 0 512 512.01885" width="512pt" xmlns="http://www.w3.org/2000/svg"><path d="m505.183594 145.265625c-3.964844-.816406-7.960938 1.269531-9.558594 4.992187l-23.371094 54.5625h-29.507812c-8.601563.003907-15.855469 6.414063-16.921875 14.949219l-6.828125 54.324219-50.464844 7.210938c-3.652344.53125-7.035156 2.222656-9.652344 4.828124l-9.28125 9.285157c1.515625-18.484375-.488281-79.445313-73.652344-167.859375l.441407-.402344c10.472656-9.5 11.261719-25.691406 1.757812-36.164062-9.5-10.472657-25.691406-11.257813-36.164062-1.757813l-.433594.402344c-95.617187-96.273438-162.800781-89.804688-165.769531-89.414063-3.726563.441406-6.726563 3.261719-7.394532 6.953125-.671874 3.691407 1.148438 7.390625 4.484376 9.109375 45.023437 23.167969 97.28125 79.921875 123.246093 110.121094l-162.675781 152.03125c-7.671875 6.953125-10.398438 17.847656-6.910156 27.59375 3.492187 9.75 12.515625 16.4375 22.855468 16.941406h1.28125c6.390626-.007812 12.550782-2.410156 17.253907-6.734375l162.550781-151.894531c28.222656 29.390625 83.089844 90.308594 102.113281 138.242188.570313 1.386718 1.5 2.597656 2.695313 3.507812l-38.792969-6.46875c-6.097656-1.015625-12.265625 1.34375-16.128906 6.167969l-95.574219 119.46875-66.386719-22.136719c-5.882812-1.949219-12.355469-.570312-16.929687 3.609375l-98.6875 90.460937c-2.59375 2.378907-3.460938 6.105469-2.1875 9.386719 1.277344 3.277344 4.433594 5.4375 7.953125 5.4375h494.933593c.351563-.003906.703126-.023437 1.050782-.070312.375-.09375.742187-.214844 1.101562-.367188 1.09375-.207031 2.113282-.703125 2.953125-1.441406.441407-.3125.847657-.671875 1.21875-1.066406.34375-.410157.644531-.855469.894531-1.332031.296876-.457032.546876-.941407.742188-1.449219.164062-.539063.277344-1.09375.335938-1.65625.105468-.378907.183593-.761719.238281-1.152344v-349.867187c-.003907-4.050782-2.855469-7.542969-6.828125-8.351563zm-251.734375-43.339844.0625-.042969c2.25-2.082031 5.445312-2.792968 8.371093-1.867187 2.921876.929687 5.121094 3.351563 5.761719 6.351563s-.375 6.109374-2.664062 8.152343l-.050781.050781c-1.851563-2.109374-3.738282-4.265624-5.683594-6.375-1.945313-2.105468-3.917969-4.222656-5.796875-6.269531zm-197.117188 201.792969c-1.65625 1.550781-3.882812 2.347656-6.144531 2.203125-3.476562-.164063-6.503906-2.421875-7.652344-5.703125-1.148437-3.28125-.191406-6.933594 2.421875-9.230469l162.132813-151.507812c1.175781 1.421875 2.15625 2.625 2.960937 3.617187l.921875 1.144532.066406.082031 1.390626 1.707031c.242187.304688.503906.589844.785156.855469.128906.117187 2.066406 2.003906 5.292968 5.230469zm169.207031-168.632812c-5.394531-6.828126-56.160156-70.273438-109.59375-111.105469 27.765626 9.402343 69.238282 31.640625 119.089844 83.386719 3.789063 3.933593 7.621094 7.988281 11.503906 12.261718 3.882813 4.277344 7.535157 8.484375 11.09375 12.640625 46.222657 54.203125 64.367188 97.671875 71.191407 126.386719-36.238281-58.011719-96.707031-117.230469-103.285157-123.570312zm73.828126 333.207031c2.414062 6.570312 5.523437 12.863281 9.269531 18.773437 1.613281 2.730469 3.140625 5.367188 4.402343 7.867188h-38.816406c3.285156-8.816406 9.558594-16.199219 17.730469-20.863282 2.457031-1.808593 4.949219-3.710937 7.414063-5.777343zm23.945312 10.085937c-6.144531-10.359375-11.945312-20.136718-8.003906-31.929687 3.09375-7.882813 8.207031-14.808594 14.832031-20.078125 6.71875-6.035156 12.566406-12.96875 17.382813-20.609375 4.027343 12.605469 11.445312 23.863281 21.441406 32.539062 16.730468 12.765625 38.09375 17.828125 58.769531 13.917969 44.707031-5.589844 60.109375 26.117188 65.078125 42.734375h-161.46875c-2.015625-5.820313-4.710938-11.382813-8.03125-16.574219zm131.730469-42.128906c3.804687-3.90625 7.148437-8.0625 10.324219-12.03125 8.679687-10.84375 15.921874-19.71875 29.578124-22.28125v59.8125c-9.742187-13.089844-23.933593-22.160156-39.902343-25.5zm-84.070313-138.058594 50.449219-7.203125c7.613281-1.09375 13.554687-7.148437 14.503906-14.78125l6.828125-54.320312h29.507813c6.828125-.003907 12.996093-4.070313 15.683593-10.34375l7-16.351563v189.441406c-21.933593 2.875-33.042968 16.597657-42.90625 28.929688-6.269531 10.117188-15.800781 17.796875-27.015624 21.777344-15.8125 3.0625-32.183594-.628906-45.152344-10.171875-16.375-13.59375-20.316406-37.351563-21.195313-50.742188 4.214844-18.710937.578125-38.328125-10.0625-54.289062.660157-.4375 1.285157-.925781 1.871094-1.457031zm-257.964844 121.113282 66.382813 22.125c6.796875 2.265624 14.289063.0625 18.773437-5.527344l95.574219-119.46875 33.609375 5.609375c.246094.277343.507813.539062.785156.785156.214844.132813 20.761719 14.316406 13.441407 50.960937-2.632813 15.792969-10.898438 30.09375-23.269531 40.257813-8.675782 7.152344-15.308594 16.46875-19.226563 27.007813-3.625 8.125-9.710937 14.902343-17.398437 19.378906-12.777344 7.523437-21.832032 20.035156-24.988282 34.519531h-226.207031zm0 0"/><path d="m227.363281 306.65625c.972657.375 2.003907.566406 3.046875.5625 1.847656 0 3.644532-.597656 5.121094-1.707031 13.226562-9.921875 36.273438-23.894531 46.078125-23.894531 3.761719.003906 7.078125-2.457032 8.171875-6.058594 1.089844-3.597656-.304688-7.488282-3.433594-9.574219-2.84375-1.894531-28.304687-18.5-47.402344-18.5-5.078124-.042969-9.894531 2.238281-13.082031 6.1875-9.8125 11.945313-5.410156 38.765625-3.816406 46.6875.574219 2.871094 2.582031 5.25 5.316406 6.296875zm11.582031-42.105469c7.28125.652344 14.363282 2.734375 20.835938 6.136719-7.878906 3.769531-15.484375 8.09375-22.75 12.945312-1.136719-6.414062-.476562-13.019531 1.914062-19.082031zm0 0"/><path d="m369.828125 198.417969c-2.914063 2.566406-3.730469 6.773437-1.988281 10.242187 5.121094 10.238282-4.265625 28.535156-8.003906 34.132813-1.53125 2.308593-1.847657 5.21875-.847657 7.800781s3.195313 4.519531 5.882813 5.195312c6.144531 1.511719 12.445312 2.3125 18.773437 2.390626 6.8125.414062 13.582031-1.382813 19.292969-5.121094 4.324219-3.386719 6.796875-8.617188 6.671875-14.105469 0-21.027344-26.390625-39.253906-29.394531-41.234375-3.222656-2.148438-7.484375-1.863281-10.386719.699219zm15.640625 26.652343c3.894531 3.875 6.386719 8.941407 7.074219 14.394532-3.851563 1.753906-8.152344 2.273437-12.3125 1.484375 2.355469-5.074219 4.113281-10.402344 5.238281-15.878907zm0 0"/><path d="m341.34375 162.152344c4.714844 0 8.535156-3.820313 8.535156-8.535156v-17.066407c0-4.710937-3.820312-8.53125-8.535156-8.53125-4.710938 0-8.53125 3.820313-8.53125 8.53125v17.066407c0 4.714843 3.820312 8.535156 8.53125 8.535156zm0 0"/><path d="m363.128906 178.367188c2.027344 1.011718 4.371094 1.175781 6.519532.460937 2.148437-.71875 3.921874-2.257813 4.933593-4.285156l8.53125-17.066407c2.109375-4.21875.394531-9.347656-3.820312-11.453124-4.21875-2.105469-9.347657-.394532-11.453125 3.824218l-8.53125 17.066406c-1.015625 2.023438-1.179688 4.371094-.464844 6.519532.71875 2.144531 2.257812 3.921875 4.285156 4.933594zm0 0"/></svg>