<svg height="512pt" viewBox="-27 0 512 512" width="512pt" xmlns="http://www.w3.org/2000/svg"><path d="m274.570312 7.5h-267.070312v497h360v-404.070312zm0 0" fill="#dcf0fb"/><path d="m7.5 7.5h30v497h-30zm0 0" fill="#96d1f3"/><path d="m274.570312 100.429688h92.929688l-92.929688-92.929688zm0 0" fill="#96d1f3"/><path d="m274.570312 7.5v92.929688h30v-62.929688zm0 0" fill="#3ca6e6"/><path d="m207.5 45h-15v-15h15zm-25 0h-15v-15h15zm0 0" fill="#fff"/><path d="m449.640625 394.863281h-55.613281v-55.613281h-53.136719v55.613281h-55.613281v53.132813h55.613281v55.613281h53.136719v-55.613281h55.613281zm0 0" fill="#e2fc85"/><g fill="#6ad34d"><path d="m285.277344 394.863281h30v53.132813h-30zm0 0"/><path d="m340.890625 339.25h30v55.613281h-30zm0 0"/><path d="m340.890625 447.996094h30v55.613281h-30zm0 0"/></g><path d="m342.5 92.929688h-60.429688v-60.429688h-15v75.429688h75.429688zm0 0"/><path d="m15 15h256.464844l88.535156 88.535156v207.714844h15v-213.929688l-97.320312-97.320312h-277.679688v512h312.890625v-15h-297.890625zm0 0"/><path d="m67.5 119.785156h140v15h-140zm0 0"/><path d="m97.5 179.785156h210v15h-210zm0 0"/><path d="m67.5 214.785156h240v15h-240zm0 0"/><path d="m67.5 249.785156h210v15h-210zm0 0"/><path d="m97.5 284.785156h210v15h-210zm0 0"/><path d="m67.5 319.785156h240v15h-240zm0 0"/><path d="m67.5 354.785156h210v15h-210zm0 0"/><path d="m401.527344 387.363281v-55.613281h-68.136719v55.613281h-55.609375v68.132813h55.609375v55.613281h68.136719v-55.613281h55.613281v-68.132813zm40.613281 53.132813h-55.613281v55.613281h-38.136719v-55.613281h-55.609375v-38.132813h55.609375v-55.613281h38.136719v55.613281h55.613281zm0 0"/></svg>