<?xml version="1.0" encoding="iso-8859-1"?>
<!-- Generator: Adobe Illustrator 21.0.0, SVG Export Plug-In . SVG Version: 6.00 Build 0)  -->
<svg xmlns="http://www.w3.org/2000/svg" xmlns:xlink="http://www.w3.org/1999/xlink" version="1.1" id="Capa_1" x="0px" y="0px" viewBox="0 0 512.003 512.003" style="enable-background:new 0 0 512.003 512.003;" xml:space="preserve" width="512" height="512">
<g>
	<path d="M98.014,346.582c-19.32,0-34.3,8.96-34.3,33.04v37.1c0,24.08,14.98,33.04,34.3,33.04s34.44-8.96,34.44-33.04v-37.1   C132.454,355.542,117.334,346.582,98.014,346.582z M110.614,416.722c0,9.66-4.76,14-12.6,14s-12.46-4.34-12.46-14v-37.1   c0-9.66,4.62-14,12.46-14s12.6,4.34,12.6,14V416.722z"/>
	<path d="M207.073,346.582c-5.46,0-10.92,1.96-10.92,6.58v47.6l-22.68-43.26c-5.32-10.22-8.26-10.92-16.1-10.92   c-5.46,0-10.92,2.1-10.92,6.72v88.9c0,4.48,5.46,6.72,10.92,6.72c5.46,0,10.92-2.24,10.92-6.72v-47.6l26.6,48.44   c2.66,4.9,7.14,5.88,12.18,5.88c5.46,0,10.92-2.24,10.92-6.72v-89.04C217.993,348.542,212.533,346.582,207.073,346.582z"/>
	<path d="M294.712,345.742c-6.44,0-12.74,2.38-14.28,7.28l-26.04,85.399c-0.14,0.56-0.28,1.12-0.28,1.54c0,5.18,7.98,8.96,14,8.96   c3.5,0,6.3-1.12,7.14-4.06l4.76-17.5h29.539l4.76,17.5c0.84,2.94,3.64,4.06,7.14,4.06c6.02,0,14-3.78,14-8.96   c0-0.42-0.14-0.98-0.28-1.54l-26.18-85.399C307.452,348.122,301.151,345.742,294.712,345.742z M284.492,410.561l10.22-37.52   l10.22,37.52H284.492z"/>
	<path d="M354.49,448.921c5.46,0,10.92-2.24,10.92-6.72v-89.04c0-4.62-5.46-6.58-10.92-6.58c-5.46,0-10.92,1.96-10.92,6.58v89.04   C343.57,446.681,349.03,448.921,354.49,448.921z"/>
	<path d="M391.449,448.921c5.46,0,10.92-2.24,10.92-6.72v-33.74h9.24l19.18,37.24c1.54,2.94,4.2,4.06,7,4.06   c6.44,0,13.72-5.88,13.72-11.34c0-0.7-0.14-1.68-0.7-2.52l-17.08-30.94c9.8-3.78,16.94-12.74,16.94-28.42   c0-22.82-15.26-29.959-34.44-29.959h-28.98c-4.06,0-6.72,3.08-6.72,6.58v89.04C380.529,446.681,385.989,448.921,391.449,448.921z    M402.369,365.621h13.86c7.84,0,12.6,3.22,12.6,13.02c0,9.8-4.76,13.02-12.6,13.02h-13.86V365.621z"/>
	<path d="M497.002,282.929H342.085l-23.043-74.991c-0.206-1.067-0.523-2.094-0.942-3.067L282.795,89.974   c11.04-8.208,18.207-21.346,18.207-36.129c0-24.813-20.187-45-45-45s-45,20.187-45,45c0,14.782,7.167,27.92,18.206,36.128   l-35.305,114.898c-0.419,0.973-0.736,1.999-0.942,3.065l-23.043,74.992H15.002c-8.284,0-15,6.716-15,15v199.074   c0,8.284,6.716,15,15,15h482c8.284,0,15-6.716,15-15V297.929C512.002,289.645,505.286,282.929,497.002,282.929z M256.002,38.846   c8.271,0,15,6.729,15,15c0,8.271-6.729,14.999-15,14.999s-15-6.729-15-14.999C241.002,45.575,247.731,38.846,256.002,38.846z    M283.928,195.801h-55.854l27.927-90.887L283.928,195.801z M218.857,225.801h74.29l17.554,57.128H201.303L218.857,225.801z    M482.002,482.003h-452V312.929h452V482.003z"/>
	<path d="M179.512,119.553c2.914,0,5.86-0.848,8.449-2.617c6.84-4.673,8.596-14.007,3.922-20.847   c-8.521-12.47-13.024-27.077-13.024-42.243c0-6.58,0.856-13.117,2.544-19.43c2.14-8.003-2.613-16.226-10.616-18.366   c-8.004-2.14-16.225,2.613-18.366,10.616c-2.364,8.84-3.563,17.984-3.563,27.18c0,21.23,6.312,41.69,18.254,59.168   C170.018,117.265,174.724,119.553,179.512,119.553z"/>
	<path d="M129.938,153.357c2.914,0,5.86-0.848,8.448-2.616c6.84-4.673,8.597-14.007,3.923-20.847   c-15.341-22.454-23.45-48.751-23.45-76.048c0-11.836,1.541-23.601,4.58-34.968c2.14-8.003-2.613-16.226-10.616-18.365   c-8.004-2.139-16.226,2.613-18.365,10.616c-3.715,13.893-5.599,28.265-5.599,42.717c0,33.361,9.918,65.51,28.68,92.972   C120.444,151.07,125.149,153.357,129.938,153.357z"/>
	<path d="M320.245,116.427c2.568,1.725,5.476,2.551,8.353,2.551c4.828,0,9.568-2.327,12.464-6.635   c11.643-17.326,17.797-37.555,17.797-58.498c0-9.051-1.161-18.055-3.45-26.761c-2.107-8.012-10.308-12.8-18.321-10.692   c-8.012,2.106-12.799,10.309-10.692,18.321c1.635,6.217,2.463,12.654,2.463,19.132c0,14.961-4.391,29.404-12.698,41.765   C311.541,102.486,313.369,111.806,320.245,116.427z"/>
	<path d="M370.081,149.848c2.567,1.725,5.475,2.551,8.353,2.551c4.828,0,9.569-2.327,12.464-6.635   c18.293-27.222,27.962-59.007,27.962-91.918c0-14.229-1.824-28.379-5.42-42.058c-2.106-8.011-10.308-12.798-18.321-10.692   c-8.012,2.106-12.799,10.309-10.692,18.321c2.942,11.19,4.434,22.774,4.434,34.429c0,26.93-7.906,52.929-22.862,75.186   C361.376,135.908,363.205,145.227,370.081,149.848z"/>
</g>















</svg>
